<?xml version="1.0" encoding="utf-8"?><svg xmlns="http://www.w3.org/2000/svg" xmlns:xlink="http://www.w3.org/1999/xlink"><symbol viewBox="0 0 13 14" id="close" xmlns="http://www.w3.org/2000/svg"><rect width="15.221" height="2.854" rx="1.427" transform="matrix(.66965 -.74267 .66965 .74267 0 11.436)"/><rect width="15.221" height="2.854" rx="1.427" transform="matrix(-.66897 -.7433 .66897 -.7433 10.183 13.436)"/></symbol><symbol viewBox="0 0 24 15" id="eye" xmlns="http://www.w3.org/2000/svg"><path d="M24 7.5c0-.2-.1-.4-.2-.6-2.7-4.4-7-6.9-11.7-6.9C7.4 0 3 2.7.2 7c-.1.2-.2.3-.2.5s.1.3.2.5c2.8 4.3 7.3 7 11.9 7 4.4 0 8.9-2.6 11.7-6.9.1-.2.2-.4.2-.6zm-11.9 6.1C8 13.6 4 11.2 1.5 7.5 4 3.6 8.1 1.3 12.1 1.3c4.2 0 8 2.2 10.5 6.2-2.6 3.7-6.6 6.1-10.5 6.1zm0-10.4c-2.4 0-4.4 2-4.4 4.3 0 2.5 2 4.3 4.4 4.3 2.4 0 4.4-1.8 4.4-4.3-.1-2.4-2.1-4.3-4.4-4.3zm0 7.3c-1.7 0-3-1.4-3-3s1.3-3 3-3c1.6 0 3 1.3 3 3s-1.3 3-3 3z"/></symbol><symbol fill="none" viewBox="0 0 28 27" id="faq" xmlns="http://www.w3.org/2000/svg"><path d="M27.998 15.822c0-.987-.311-1.95-.89-2.76a4.95 4.95 0 0 0-2.352-1.769v-.831c0-2.775-1.134-5.436-3.151-7.398C19.587 1.102 16.85 0 13.998 0c-2.853 0-5.59 1.102-7.607 3.064C4.373 5.026 3.24 7.687 3.24 10.462v.831a4.94 4.94 0 0 0-2.587 2.139 4.724 4.724 0 0 0-.574 3.254 4.812 4.812 0 0 0 1.707 2.855 5.06 5.06 0 0 0 3.193 1.125h1.798a.867.867 0 0 0 .604-.244.82.82 0 0 0 .25-.588V11.81a.82.82 0 0 0-.25-.588.867.867 0 0 0-.604-.243h-.825v-.516c0-2.075.847-4.066 2.356-5.533a8.163 8.163 0 0 1 5.69-2.292c2.134 0 4.18.824 5.69 2.292a7.717 7.717 0 0 1 2.356 5.533v.516h-.825a.867.867 0 0 0-.605.243.82.82 0 0 0-.25.588v8.025c0 .22.09.432.25.588.16.156.378.244.605.244h.383a5.781 5.781 0 0 1-1.998 2.394 6.016 6.016 0 0 1-2.983 1.045 1.228 1.228 0 0 0-.442-.7 1.29 1.29 0 0 0-.796-.274h-2.8a1.287 1.287 0 0 0-.899.358 1.223 1.223 0 0 0-.368.874v1.404a1.193 1.193 0 0 0 .368.875 1.262 1.262 0 0 0 .9.358h2.8c.299.002.59-.1.817-.29.227-.19.377-.454.42-.742a7.953 7.953 0 0 0 4.388-1.604 7.604 7.604 0 0 0 2.656-3.756 5.03 5.03 0 0 0 3.09-1.603 4.773 4.773 0 0 0 1.243-3.183z" fill="#7D96AB"/></symbol><symbol fill="none" viewBox="0 0 18 26" id="lock" xmlns="http://www.w3.org/2000/svg"><path d="M16.138 10.023V8.155C16.08 4.132 12.78.914 8.83 1c-3.837.086-6.94 3.247-7.025 7.155v1.868H0V26h18V10.023h-1.862zM2.934 8.155c.085-3.39 2.85-6.092 6.179-6.006 3.244.058 5.84 2.73 5.925 6.035v1.868H2.934V8.155zM16.872 24.85H1.129v-1.437h15.743v1.437zm0-2.586H1.129V11.172h15.743v11.092z" fill="#AFADAE"/><path d="M6.687 15.598c0 .66.282 1.293.761 1.724v3.736h3.104v-3.736c.959-.862 1.015-2.356.169-3.333-.846-.978-2.313-1.035-3.273-.173a2.5 2.5 0 0 0-.761 1.782zM9 14.39c.649 0 1.185.546 1.185 1.207 0 .402-.198.747-.508.977l-.254.172v3.161h-.846v-3.16l-.254-.173a1.183 1.183 0 0 1-.282-1.667c.225-.316.564-.517.959-.517z" fill="#AFADAE"/></symbol><symbol fill="none" viewBox="0 0 145 37" id="logo" xmlns="http://www.w3.org/2000/svg"><g clip-path="url(#eclip0)"><path d="M14.925 0h26.39v26.429a10.62 10.62 0 0 1-3.093 7.473A10.59 10.59 0 0 1 30.759 37H0l4.368-5.286H30.76a5.072 5.072 0 0 0 3.701-1.58c.971-.971 1.578-2.308 1.578-3.705V5.286H14.925a5.072 5.072 0 0 0-3.701 1.58c-.91.91-1.456 2.126-1.578 3.462v6.684l5.279-6.38h21.173l-4.368 5.286H17.352l-7.706 9.417-5.278 6.38V10.57A10.62 10.62 0 0 1 7.462 3.1 10.59 10.59 0 0 1 14.925 0z" fill="#005288"/><path d="M138.994 17.255c.667 0 1.153.06 1.517.364.303.304.485.73.485 1.458v.122h-4.065v-.122c.121-.668.303-1.093.607-1.397.303-.304.788-.425 1.456-.425zm4.307 6.804c-.121 0-.242.06-.364.06-.182 0-.364.062-.546.062-.97.121-2.123.182-2.851.182-.85 0-1.456-.06-1.881-.304-.485-.243-.728-.729-.728-1.458v-.121h8.008c.243-3.707-.182-5.894-1.213-7.109-1.031-1.276-2.73-1.58-5.157-1.58-1.941 0-3.579.426-4.732 1.459-1.153 1.093-1.82 2.916-1.82 5.71 0 2.795.789 4.679 2.002 5.772 1.213 1.094 2.973 1.52 4.853 1.52.85 0 1.76-.061 2.67-.183.121 0 .303-.06.425-.06.728-.122 1.334-.244 1.941-.426l-.607-3.524zm-13.468-9.538c-.122-.061-.304-.122-.486-.183-.182-.06-.424-.121-.606-.182-1.092-.243-2.488-.425-3.58-.425-1.699 0-3.276.243-4.429.972-1.152.729-1.88 1.883-1.88 3.827 0 1.52.364 2.491 1.031 3.099.667.607 1.699.911 3.094 1.033 1.092.121 1.759.182 2.124.364.424.183.546.365.546.669 0 .425-.182.607-.546.729-.365.121-.85.121-1.578.121-.667 0-1.395-.06-2.002-.182-.121 0-.182-.06-.303-.06a9.42 9.42 0 0 1-1.396-.305l-.849 3.463c.121.061.303.122.485.122.182.06.425.122.668.182 1.152.243 2.548.425 3.64.425 1.699 0 3.337-.242 4.489-.972 1.153-.729 1.942-1.944 1.942-3.827 0-1.458-.364-2.37-1.032-3.038-.728-.668-1.82-.972-3.397-1.215-1.032-.122-1.578-.243-1.881-.365-.364-.121-.425-.303-.425-.607 0-.425.122-.608.425-.73.243-.12.607-.12 1.153-.12.728 0 1.517.06 2.184.182.121 0 .243.06.364.06.546.061 1.031.183 1.517.304l.728-3.341zm-18.019 10.085c-.061.06-.182.06-.243.06-.06 0-.182.061-.242.061a5.173 5.173 0 0 1-1.396.183c-.607 0-.971-.061-1.213-.243-.243-.183-.304-.486-.304-1.033 0-.547.122-.85.364-1.033.243-.182.668-.182 1.214-.182h.971c.303 0 .606.06.849.121h.061v2.005l-.061.06zm4.55-5.468c0-2.005-.485-3.342-1.517-4.131-1.031-.851-2.548-1.155-4.611-1.155-1.031 0-2.184.061-3.276.243-.182 0-.364.061-.546.061-.849.121-1.698.304-2.426.425l.667 3.646c.546-.183 1.213-.304 1.881-.426.728-.121 1.577-.243 2.426-.243 1.335 0 2.063.122 2.427.426.425.303.486.85.486 1.58v.12h-.122c-.121 0-.242-.06-.364-.06-.121 0-.242-.06-.424-.06a12.374 12.374 0 0 0-2.063-.183c-1.699 0-2.973.182-3.883.79-.91.607-1.395 1.701-1.395 3.645 0 1.762.303 2.916 1.213 3.585.91.668 2.366.911 4.732.911 1.032 0 2.306-.122 3.519-.304.182-.06.425-.06.607-.121.97-.183 1.941-.426 2.73-.669v-8.08h-.061zm-28.454-.73c0 3.828.728 6.32 2.184 7.778 1.456 1.518 3.701 2.065 6.735 2.065.91 0 1.88-.06 2.851-.182.121 0 .303-.06.485-.06a69.367 69.367 0 0 0 2.063-.365l-.849-4.435c-.061 0-.182.06-.304.06-.121.061-.303.061-.424.122-.789.182-1.76.243-2.61.243-1.758 0-2.972-.122-3.76-.85-.79-.73-1.093-2.006-1.093-4.375 0-2.37.304-3.645 1.092-4.314.79-.729 2.002-.79 3.762-.79.546 0 1.213.061 1.82.122.121 0 .182 0 .303.06.425.062.85.183 1.214.244l.849-4.314c-.182-.06-.364-.06-.546-.121-.243-.061-.485-.122-.728-.122-1.274-.243-2.851-.364-4.125-.364-3.034 0-5.279.486-6.735 1.944-1.516 1.397-2.184 3.827-2.184 7.655zm-11.224-.242c.304-.06.546-.122.789-.122.243-.06.485-.06.728-.06.85 0 1.395.182 1.699.607.303.425.364 1.094.364 2.066v7.23h4.732v-7.534c0-2.43-.485-4.07-1.456-5.103-.97-1.033-2.366-1.459-4.247-1.459-1.395 0-2.79.183-4.065.426-.182.06-.425.06-.606.121a42.287 42.287 0 0 0-2.73.73v12.819h4.732v-9.721h.06zM65.887 7.959c-1.031 0-1.699.06-2.123.365-.425.303-.546.85-.546 1.822 0 1.033.182 1.64.546 2.005.424.365 1.092.425 2.062.425 1.032 0 1.7-.06 2.063-.425.425-.364.546-.972.546-2.005 0-.972-.182-1.519-.546-1.822-.303-.304-.97-.365-2.002-.365zm-2.305 19.928h4.732v-13.67h-4.732v13.67zM47.808 9.235v18.652h4.974v-6.44h6.674v-4.253h-6.674v-3.645h8.919V9.235H47.808z" fill="#AFADAE"/><path d="M19.9 21.143h7.462l-4.368 5.285H15.53l4.368-5.285z" fill="#54BCEB"/></g><defs><clipPath id="eclip0"><path fill="#fff" d="M0 0h145v37H0z"/></clipPath></defs></symbol><symbol fill="none" viewBox="0 0 21 24" id="logout" xmlns="http://www.w3.org/2000/svg"><path d="M6.127 17.968a7.99 7.99 0 0 1-1.968-2.73 7.86 7.86 0 0 1-.657-3.282 7.86 7.86 0 0 1 .657-3.282 7.99 7.99 0 0 1 1.968-2.73 8.911 8.911 0 0 1 6.188-2.486c2.314 0 4.537.893 6.187 2.486l1.75-1.718a11.358 11.358 0 0 0-7.937-3.217 11.36 11.36 0 0 0-7.938 3.217 10.213 10.213 0 0 0-2.536 3.508 10.046 10.046 0 0 0-.839 4.222c-.012 1.455.27 2.897.827 4.245a11.028 11.028 0 0 0 2.423 3.608 11.804 11.804 0 0 0 8 3.19 11.803 11.803 0 0 0 8-3.19l-1.75-1.84a8.605 8.605 0 0 1-2.826 1.907 8.739 8.739 0 0 1-6.723 0 8.605 8.605 0 0 1-2.826-1.908z" fill="#7D96AB" stroke="#7D96AB"/></symbol><symbol viewBox="0 0 28 28" fill="none" id="new" xmlns="http://www.w3.org/2000/svg"><path d="M4 0v24h24V0H4zm22 22H6V2h20v20zM2 26V5L0 3v25h25l-2-2H2z" fill="#33B44E"/><path d="M9 6l5 5-6 6 3 3 6-6 5 5V6H9z" fill="#33B44E"/></symbol><symbol viewBox="0 0 14 14" fill="none" id="search" xmlns="http://www.w3.org/2000/svg"><path d="M14 12.787l-4.2-4.23a5.66 5.66 0 0 0 .568-1.037c1.14-2.754-.134-5.919-2.86-7.094A5.376 5.376 0 0 0 5.4 0C2.418.003-.003 2.438 0 5.44c0 2.182 1.3 4.155 3.298 5.005a5.377 5.377 0 0 0 5.309-.658L12.794 14 14 12.787zm-8.599-3.63c-2.043 0-3.697-1.664-3.697-3.72 0-2.055 1.657-3.72 3.697-3.72S9.1 3.382 9.1 5.437c0 2.056-1.655 3.72-3.698 3.72z" fill="#AFADAE"/></symbol><symbol fill="none" viewBox="0 0 26 26" id="support" xmlns="http://www.w3.org/2000/svg"><path d="M24.588 14.64a2.152 2.152 0 0 1 0-4.277.459.459 0 0 0 .404-.556 12.738 12.738 0 0 0-1.757-4.23.459.459 0 0 0-.312-.207.486.486 0 0 0-.363.096 2.152 2.152 0 0 1-3.024-3.024.485.485 0 0 0 .097-.362.459.459 0 0 0-.207-.312A12.739 12.739 0 0 0 15.196.01a.459.459 0 0 0-.494.222.46.46 0 0 0-.057.182 2.157 2.157 0 0 1-4.287 0 .458.458 0 0 0-.183-.326.491.491 0 0 0-.367-.078 12.743 12.743 0 0 0-4.231 1.758.459.459 0 0 0-.207.312.486.486 0 0 0 .097.362 2.152 2.152 0 0 1-3.024 3.024.486.486 0 0 0-.363-.096.459.459 0 0 0-.312.207 12.739 12.739 0 0 0-1.757 4.23.459.459 0 0 0 .404.556 2.152 2.152 0 0 1 0 4.277.46.46 0 0 0-.404.555c.325 1.505.92 2.938 1.757 4.23a.457.457 0 0 0 .675.11 2.152 2.152 0 0 1 3.024 3.025.487.487 0 0 0-.097.362.46.46 0 0 0 .207.312 12.738 12.738 0 0 0 4.23 1.758.46.46 0 0 0 .494-.222.457.457 0 0 0 .057-.182 2.157 2.157 0 0 1 4.287 0 .459.459 0 0 0 .183.326.46.46 0 0 0 .27.087h.097a12.74 12.74 0 0 0 4.231-1.757.46.46 0 0 0 .207-.313.486.486 0 0 0-.097-.362 2.152 2.152 0 0 1 3.024-3.024.487.487 0 0 0 .363.096.458.458 0 0 0 .312-.206 12.738 12.738 0 0 0 1.757-4.231.46.46 0 0 0-.078-.367.46.46 0 0 0-.326-.197zm-12.087 4.492a6.631 6.631 0 1 1 0-13.262 6.631 6.631 0 0 1 0 13.262z" fill="#7D96AB"/></symbol><symbol viewBox="0 0 29 29" fill="none" id="update" xmlns="http://www.w3.org/2000/svg"><path d="M27.656 15.837c-.73-.037-1.341-.595-1.345-1.348 0-.524-.03-1.048-.09-1.568a13.066 13.066 0 0 0-.797-2.96 13.28 13.28 0 0 0-1.593-2.728 13.4 13.4 0 0 0-2.07-2.07 13.318 13.318 0 0 0-2.716-1.585 13.23 13.23 0 0 0-2.998-.806 13.222 13.222 0 0 0-3.093 0 13.24 13.24 0 0 0-2.981.8c-.968.42-1.886.953-2.73 1.592A13.481 13.481 0 0 0 5.18 7.23a13.17 13.17 0 0 0-1.593 2.724 13.215 13.215 0 0 0-.807 2.997 13.174 13.174 0 0 0 0 3.087c.152 1.025.42 2.03.804 2.99.42.968.954 1.881 1.59 2.721a13.314 13.314 0 0 0 2.073 2.076 13.29 13.29 0 0 0 2.73 1.593 13.34 13.34 0 0 0 2.99.803c1.026.117 2.064.117 3.09 0a13.395 13.395 0 0 0 3.011-.81 13.51 13.51 0 0 0 2.706-1.579 13.472 13.472 0 0 0 1.805-1.75h-3.785c-.702 0-1.378-.618-1.344-1.344.033-.729.591-1.344 1.344-1.344h6.282a1.368 1.368 0 0 1 1.344 1.448v6.175c0 .702-.618 1.377-1.344 1.344-.73-.034-1.345-.592-1.345-1.344v-2.235a14.418 14.418 0 0 1-3.472 2.55c-2.578 1.34-5.559 1.928-8.443 1.559-.726-.095-1.445-.212-2.15-.407-.7-.191-1.372-.45-2.04-.736-1.217-.524-2.323-1.24-3.352-2.072-2.053-1.663-3.583-3.924-4.467-6.404-.924-2.586-1.041-5.455-.42-8.126.599-2.567 1.946-4.965 3.795-6.84A14.506 14.506 0 0 1 10.972.43c2.661-.658 5.535-.568 8.136.32 2.494.85 4.773 2.358 6.46 4.387 1.708 2.049 2.887 4.528 3.26 7.179.101.722.172 1.444.172 2.177 0 .702-.618 1.377-1.344 1.344zM12.91 26.214c-.06-.007-.125-.017-.185-.023.06.006.124.013.185.023zM2.78 12.907c.01-.064.016-.127.023-.188-.007.06-.017.124-.024.188zM16.086 2.775c.064.01.128.017.188.024a3.193 3.193 0 0 0-.188-.024z" fill="#54ACF2"/></symbol><symbol viewBox="0 0 25 31" fill="none" id="xls" xmlns="http://www.w3.org/2000/svg"><path d="M3.89 15.808h2.02l1.06 2.19 1.022-2.19H10l-1.845 3.448 2.032 3.671h-2.07l-1.172-2.29-1.185 2.29H3.703l2.057-3.709-1.87-3.41zm6.883 0h1.845v5.364h2.868v1.755h-4.713v-7.12zm5.224 4.767l1.746-.137c.037.337.112.598.224.785a.92.92 0 0 0 .81.435c.262 0 .462-.074.6-.224a.748.748 0 0 0 .211-.51.705.705 0 0 0-.2-.498c-.137-.15-.448-.286-.935-.41-.81-.212-1.384-.511-1.72-.872-.35-.361-.524-.822-.524-1.382 0-.36.087-.71.262-1.033a1.91 1.91 0 0 1 .798-.772c.362-.186.848-.273 1.459-.273.76 0 1.334.174 1.733.51s.636.884.71 1.618l-1.732.124c-.05-.323-.138-.547-.287-.697-.15-.149-.35-.224-.611-.224-.212 0-.374.05-.487.162a.525.525 0 0 0-.162.399c0 .112.05.211.137.31.088.1.287.188.611.262.799.212 1.384.423 1.721.635.35.211.599.473.76.784.163.311.238.672.238 1.058 0 .46-.1.884-.312 1.27a2.237 2.237 0 0 1-.885.884c-.374.199-.86.298-1.434.298-1.01 0-1.709-.236-2.108-.697-.349-.485-.573-1.083-.623-1.805z" fill="#54ACF2"/><path d="M23.38 7.73l-6.348-6.162C16.122.685 14.426 0 13.167 0H2.805A2.807 2.807 0 0 0 0 2.8v24.546a2.808 2.808 0 0 0 2.805 2.801h19.39a2.807 2.807 0 0 0 2.805-2.8V11.562c0-1.282-.698-2.937-1.62-3.833zm-1.298 1.344c.225.224.437.548.624.909h-7.02a.941.941 0 0 1-.935-.934V2.265c.399.175.748.399.985.635l6.346 6.174zm.113 19.206H2.805a.941.941 0 0 1-.935-.934V2.801c0-.51.424-.934.935-.934h10.063v7.17c0 1.543 1.26 2.8 2.805 2.8h7.47v15.51a.952.952 0 0 1-.948.933z" fill="#54ACF2"/></symbol></svg>