<svg width="24" height="15" viewBox="0 0 24 15" xmlns="http://www.w3.org/2000/svg">
<path d="M24 7.5C24 7.3 23.9 7.1 23.8 6.9C21.1 2.5 16.8 0 12.1 0C7.4 0 3 2.7 0.2 7C0.1 7.2 0 7.3 0 7.5C0 7.7 0.1 7.8 0.2 8C3 12.3 7.5 15 12.1 15C16.5 15 21 12.4 23.8 8.1C23.9 7.9 24 7.7 24 7.5ZM12.1 13.6C8 13.6 4 11.2 1.5 7.5C4 3.6 8.1 1.3 12.1 1.3C16.3 1.3 20.1 3.5 22.6 7.5C20 11.2 16 13.6 12.1 13.6ZM12.1 3.2C9.7 3.2 7.7 5.2 7.7 7.5C7.7 10 9.7 11.8 12.1 11.8C14.5 11.8 16.5 10 16.5 7.5C16.4 5.1 14.4 3.2 12.1 3.2ZM12.1 10.5C10.4 10.5 9.1 9.1 9.1 7.5C9.1 5.9 10.4 4.5 12.1 4.5C13.7 4.5 15.1 5.8 15.1 7.5C15.1 9.2 13.8 10.5 12.1 10.5Z"/>
</svg>
