<svg width="18" height="26" viewBox="0 0 18 26" fill="none" xmlns="http://www.w3.org/2000/svg">
<path d="M16.1379 10.0227V8.15491C16.0815 4.13192 12.7806 0.913532 8.83072 0.999739C4.99373 1.08595 1.89028 4.24687 1.80564 8.15491V10.0227H0V25.9997H18V10.0227H16.1379ZM2.93417 8.15491C3.01881 4.76411 5.7837 2.06296 9.11285 2.14916C12.3574 2.20664 14.953 4.87905 15.0376 8.18365V10.0515H2.93417V8.15491ZM16.8715 24.8503H1.12853V23.4135H16.8715V24.8503ZM16.8715 22.2641H1.12853V11.1722H16.8715V22.2641Z" fill="#AFADAE"/>
<path d="M6.68652 15.5977C6.68652 16.2586 6.96865 16.8908 7.44828 17.3219V21.0575H10.5517V17.3219C11.511 16.4598 11.5674 14.9655 10.721 13.9885C9.87461 13.0115 8.40753 12.954 7.44828 13.8161C6.96865 14.2759 6.68652 14.9368 6.68652 15.5977ZM9 14.3908C9.64891 14.3908 10.185 14.9368 10.185 15.5977C10.185 16 9.98746 16.3448 9.67712 16.5747L9.4232 16.7471V19.9081H8.57681V16.7471L8.32289 16.5747C7.78684 16.2012 7.64577 15.454 8.04076 14.9081C8.26646 14.592 8.60502 14.3908 9 14.3908Z" fill="#AFADAE"/>
</svg>
