<svg width="145" height="37" viewBox="0 0 145 37" fill="none" xmlns="http://www.w3.org/2000/svg">
<g clip-path="url(#clip0)">
<path d="M14.9247 0H41.3159V26.4286C41.3159 29.3448 40.1025 32.0181 38.2218 33.9015C36.341 35.7849 33.6716 37 30.7594 37H0L4.3682 31.7143H9.64644H30.7594C32.2155 31.7143 33.5502 31.1067 34.4603 30.1346C35.431 29.1626 36.0377 27.8259 36.0377 26.4286V7.95895V5.28571H14.9247C13.4686 5.28571 12.1339 5.89327 11.2238 6.86535C10.3138 7.77668 9.76778 8.99179 9.64644 10.3284V10.6322V17.0115L14.9247 10.6322H36.0983L31.7301 15.9179H17.3515L9.64644 25.335L4.3682 31.7143V10.5714C4.3682 7.65517 5.58159 4.98194 7.46234 3.09852C9.3431 1.21511 12.0126 0 14.9247 0Z" fill="#005288"/>
<path d="M138.994 17.2546C139.661 17.2546 140.147 17.3153 140.511 17.6191C140.814 17.9229 140.996 18.3481 140.996 19.0772V19.1987H136.931V19.0772C137.052 18.4089 137.234 17.9836 137.538 17.6798C137.841 17.3761 138.326 17.2546 138.994 17.2546ZM143.301 24.0591C143.18 24.0591 143.059 24.1199 142.937 24.1199C142.755 24.1199 142.573 24.1807 142.391 24.1807C141.421 24.3022 140.268 24.3629 139.54 24.3629C138.69 24.3629 138.084 24.3022 137.659 24.0591C137.174 23.8161 136.931 23.3301 136.931 22.601V22.4795H144.939C145.182 18.7734 144.757 16.5862 143.726 15.3711C142.695 14.0953 140.996 13.7915 138.569 13.7915C136.628 13.7915 134.99 14.2168 133.837 15.2496C132.684 16.3432 132.017 18.1659 132.017 20.9606C132.017 23.7554 132.806 25.6388 134.019 26.7324C135.232 27.826 136.992 28.2513 138.872 28.2513C139.722 28.2513 140.632 28.1905 141.542 28.069C141.663 28.069 141.845 28.0082 141.967 28.0082C142.695 27.8867 143.301 27.7652 143.908 27.583L143.301 24.0591ZM129.833 14.5206C129.711 14.4598 129.529 14.3991 129.347 14.3383C129.165 14.2775 128.923 14.2168 128.741 14.156C127.649 13.913 126.253 13.7307 125.161 13.7307C123.462 13.7307 121.885 13.9738 120.732 14.7028C119.58 15.4319 118.852 16.5862 118.852 18.5304C118.852 20.0493 119.216 21.0214 119.883 21.6289C120.55 22.2365 121.582 22.5403 122.977 22.6618C124.069 22.7833 124.736 22.844 125.101 23.0263C125.525 23.2086 125.647 23.3908 125.647 23.6946C125.647 24.1199 125.465 24.3022 125.101 24.4237C124.736 24.5452 124.251 24.5452 123.523 24.5452C122.856 24.5452 122.128 24.4844 121.521 24.3629C121.4 24.3629 121.339 24.3022 121.218 24.3022C120.732 24.2414 120.247 24.1199 119.822 23.9984L118.973 27.4614C119.094 27.5222 119.276 27.583 119.458 27.583C119.64 27.6437 119.883 27.7045 120.126 27.7652C121.278 28.0082 122.674 28.1905 123.766 28.1905C125.465 28.1905 127.103 27.9475 128.255 27.2184C129.408 26.4894 130.197 25.2743 130.197 23.3908C130.197 21.9327 129.833 21.0214 129.165 20.3531C128.437 19.6848 127.345 19.381 125.768 19.138C124.736 19.0165 124.19 18.8949 123.887 18.7734C123.523 18.6519 123.462 18.4697 123.462 18.1659C123.462 17.7406 123.584 17.5583 123.887 17.4368C124.13 17.3153 124.494 17.3153 125.04 17.3153C125.768 17.3153 126.557 17.3761 127.224 17.4976C127.345 17.4976 127.467 17.5583 127.588 17.5583C128.134 17.6191 128.619 17.7406 129.105 17.8621L129.833 14.5206ZM111.814 24.6059C111.753 24.6667 111.632 24.6667 111.571 24.6667C111.511 24.6667 111.389 24.7275 111.329 24.7275C110.904 24.849 110.418 24.9097 109.933 24.9097C109.326 24.9097 108.962 24.849 108.72 24.6667C108.477 24.4844 108.416 24.1807 108.416 23.6339C108.416 23.0871 108.538 22.7833 108.78 22.601C109.023 22.4188 109.448 22.4188 109.994 22.4188C110.297 22.4188 110.661 22.4188 110.965 22.4188C111.268 22.4188 111.571 22.4795 111.814 22.5403H111.875V24.5452L111.814 24.6059ZM116.364 19.138C116.364 17.133 115.879 15.7964 114.847 15.0066C113.816 14.156 112.299 13.8523 110.236 13.8523C109.205 13.8523 108.052 13.913 106.96 14.0953C106.778 14.0953 106.596 14.156 106.414 14.156C105.565 14.2775 104.716 14.4598 103.988 14.5813L104.655 18.2266C105.201 18.0444 105.868 17.9229 106.536 17.8013C107.264 17.6798 108.113 17.5583 108.962 17.5583C110.297 17.5583 111.025 17.6798 111.389 17.9836C111.814 18.2874 111.875 18.8342 111.875 19.5633V19.6848H111.753C111.632 19.6848 111.511 19.624 111.389 19.624C111.268 19.624 111.147 19.5633 110.965 19.5633C110.297 19.4417 109.508 19.381 108.902 19.381C107.203 19.381 105.929 19.5633 105.019 20.1708C104.109 20.7784 103.624 21.872 103.624 23.8161C103.624 25.578 103.927 26.7324 104.837 27.4007C105.747 28.069 107.203 28.312 109.569 28.312C110.601 28.312 111.875 28.1905 113.088 28.0082C113.27 27.9475 113.513 27.9475 113.695 27.8867C114.665 27.7045 115.636 27.4614 116.425 27.2184V19.138H116.364ZM87.9101 18.4089C87.9101 22.2365 88.6382 24.7275 90.0942 26.1856C91.5503 27.7045 93.7951 28.2513 96.8285 28.2513C97.7386 28.2513 98.7093 28.1905 99.68 28.069C99.8013 28.069 99.9834 28.0082 100.165 28.0082C100.893 27.8867 101.621 27.7652 102.228 27.6437L101.379 23.2086C101.318 23.2086 101.197 23.2693 101.075 23.2693C100.954 23.3301 100.772 23.3301 100.651 23.3908C99.862 23.5731 98.8913 23.6339 98.0419 23.6339C96.2825 23.6339 95.0691 23.5124 94.2804 22.7833C93.4917 22.0542 93.1884 20.7784 93.1884 18.4089C93.1884 16.0394 93.4917 14.7636 94.2804 14.0953C95.0691 13.3662 96.2825 13.3055 98.0419 13.3055C98.588 13.3055 99.2553 13.3662 99.862 13.427C99.9834 13.427 100.044 13.427 100.165 13.4877C100.59 13.5485 101.015 13.67 101.379 13.7307L102.228 9.41711C102.046 9.35636 101.864 9.35636 101.682 9.2956C101.439 9.23485 101.197 9.17409 100.954 9.17409C99.68 8.93107 98.1026 8.80956 96.8285 8.80956C93.7951 8.80956 91.5503 9.2956 90.0942 10.7537C88.5775 12.1511 87.9101 14.5813 87.9101 18.4089ZM76.6863 18.1659C76.9896 18.1051 77.2323 18.0444 77.475 18.0444C77.7177 17.9836 77.9603 17.9836 78.203 17.9836C79.0524 17.9836 79.5984 18.1659 79.9018 18.5912C80.2051 19.0165 80.2658 19.6848 80.2658 20.6569V27.8867H84.998V20.3531C84.998 17.9229 84.5126 16.2825 83.5419 15.2496C82.5712 14.2168 81.1758 13.7915 79.2951 13.7915C77.8997 13.7915 76.5043 13.9738 75.2302 14.2168C75.0482 14.2775 74.8055 14.2775 74.6235 14.3383C73.5921 14.5813 72.6821 14.8243 71.8934 15.0674V27.8867H76.6256V18.1659H76.6863ZM65.8871 7.95898C64.8557 7.95898 64.1884 8.01974 63.7637 8.32352C63.339 8.62729 63.2177 9.17409 63.2177 10.1462C63.2177 11.179 63.3997 11.7866 63.7637 12.1511C64.1884 12.5156 64.8557 12.5764 65.8264 12.5764C66.8578 12.5764 67.5252 12.5156 67.8892 12.1511C68.3139 11.7866 68.4352 11.179 68.4352 10.1462C68.4352 9.17409 68.2532 8.62729 67.8892 8.32352C67.5859 8.01974 66.9185 7.95898 65.8871 7.95898ZM63.5817 27.8867H68.3139V14.2168H63.5817V27.8867ZM47.8076 9.23485V27.8867H52.7825V21.4467H59.4562V17.1938H52.7825V13.5485H61.7009V9.23485H47.8076Z" fill="#AFADAE"/>
<path d="M19.8994 21.1426H27.3618L22.9936 26.4283H15.5312L19.8994 21.1426Z" fill="#54BCEB"/>
</g>
<defs>
<clipPath id="clip0">
<rect width="145" height="37" fill="white"/>
</clipPath>
</defs>
</svg>
