<svg viewBox="0 0 29 29" fill="none" xmlns="http://www.w3.org/2000/svg">
<path d="M27.6556 15.8366C26.9262 15.7997 26.3145 15.242 26.3112 14.4895C26.3112 13.9654 26.2809 13.4413 26.2204 12.9206C26.0725 11.9061 25.8036 10.9117 25.4238 9.96093C25.0037 8.99341 24.4693 8.07627 23.8307 7.23305C23.219 6.47045 22.5232 5.77504 21.7603 5.16362C20.92 4.52868 20.0092 3.99788 19.0445 3.57795C18.0799 3.19161 17.075 2.92286 16.0465 2.77168C15.0214 2.65074 13.9828 2.65074 12.9543 2.77168C11.9325 2.9195 10.9309 3.19161 9.97304 3.57123C9.00506 3.99117 8.08749 4.52532 7.24386 5.16362C6.48426 5.77504 5.79188 6.46709 5.18017 7.22969C4.54157 8.06956 4.00716 8.98669 3.58703 9.95421C3.2005 10.9184 2.93162 11.9229 2.78037 12.9509C2.65937 13.9755 2.65937 15.0102 2.78037 16.0382C2.93162 17.0628 3.2005 18.0673 3.58367 19.0281C4.0038 19.9956 4.53821 20.9094 5.17345 21.7493C5.78516 22.5152 6.4809 23.2107 7.24722 23.8254C8.09085 24.4637 9.00842 24.9979 9.9764 25.4178C10.9377 25.8008 11.9426 26.0696 12.9677 26.2207C13.9929 26.3383 15.0314 26.3383 16.0566 26.2207C17.0884 26.0696 18.0967 25.7974 19.0681 25.4111C20.0293 24.9912 20.9368 24.4604 21.7737 23.8322C22.4291 23.3047 23.0341 22.7202 23.5786 22.0819C22.5804 22.0819 21.5788 22.0819 20.5772 22.0819C20.315 22.0819 20.0562 22.0819 19.7941 22.0819C19.0916 22.0819 18.416 21.4637 18.4496 20.7381C18.4832 20.0091 19.0412 19.3943 19.7941 19.3943C20.4999 19.3943 21.2057 19.3943 21.9115 19.3943C23.0375 19.3943 24.1634 19.3943 25.2928 19.3943C25.5549 19.3943 25.8137 19.3943 26.0759 19.3943C26.7548 19.3943 27.3396 19.9318 27.4136 20.597C27.4237 20.6776 27.427 20.7616 27.4203 20.8422C27.4203 21.5141 27.4203 22.1827 27.4203 22.8546C27.4203 23.98 27.4203 25.1054 27.4203 26.2342C27.4203 26.4962 27.4203 26.7549 27.4203 27.0169C27.4203 27.7191 26.8019 28.3943 26.0759 28.3607C25.3465 28.3271 24.7315 27.7694 24.7315 27.0169C24.7315 26.3114 24.7315 25.606 24.7315 24.9005C24.7315 24.8602 24.7315 24.8232 24.7315 24.7829C23.7063 25.8008 22.5333 26.6675 21.2595 27.3327C18.6815 28.6731 15.7003 29.261 12.8165 28.8915C12.0905 28.7974 11.3712 28.6799 10.6654 28.485C9.96632 28.2935 9.29411 28.0348 8.62526 27.7493C7.40855 27.2252 6.30276 26.5096 5.27428 25.6765C3.22067 24.0136 1.69139 21.7526 0.80743 19.2734C-0.116862 16.6866 -0.234499 13.8176 0.387297 11.1468C0.985566 8.58019 2.33335 6.18154 4.18193 4.30696C6.03052 2.43237 8.41351 1.06171 10.9713 0.430136C13.6332 -0.228319 16.5069 -0.137615 19.1084 0.749285C21.6023 1.59923 23.8811 3.10763 25.5684 5.13674C27.2758 7.18602 28.4555 9.6653 28.8286 12.3159C28.9294 13.0382 29 13.7605 29 14.4928C29 15.195 28.3816 15.8702 27.6556 15.8366ZM12.9106 26.214C12.8501 26.2073 12.7862 26.1972 12.7257 26.1905C12.7862 26.1972 12.8501 26.2039 12.9106 26.214ZM2.78037 12.9072C2.79045 12.8434 2.79718 12.7795 2.8039 12.7191C2.79718 12.7795 2.78709 12.8434 2.78037 12.9072ZM16.0868 2.77504C16.1507 2.78512 16.2145 2.79184 16.275 2.79856C16.2145 2.78848 16.1507 2.78176 16.0868 2.77504Z" fill="#54ACF2"/>
</svg>
