<svg viewBox="0 0 25 31" fill="none" xmlns="http://www.w3.org/2000/svg">
<path d="M3.89016 15.8076H5.91011L6.96996 17.9983L7.9924 15.8076H9.99988L8.1545 19.2555L10.1869 22.9274H8.11709L6.94502 20.6371L5.76048 22.9274H3.70312L5.76048 19.2181L3.89016 15.8076Z" fill="#54ACF2"/>
<path d="M10.7725 15.8076H12.6178V21.1724H15.4857V22.9274H10.7725V15.8076Z" fill="#54ACF2"/>
<path d="M15.9971 20.5753L17.7427 20.4384C17.7801 20.7745 17.8549 21.0359 17.9671 21.2226C18.1542 21.5089 18.4285 21.6582 18.7776 21.6582C19.0395 21.6582 19.239 21.5836 19.3761 21.4342C19.5133 21.2848 19.5881 21.1106 19.5881 20.9239C19.5881 20.7372 19.5257 20.5753 19.3886 20.426C19.2514 20.2766 18.9397 20.1397 18.4534 20.0152C17.643 19.8036 17.0694 19.5049 16.7327 19.1439C16.3836 18.7829 16.209 18.3224 16.209 17.7623C16.209 17.4013 16.2963 17.0528 16.4709 16.7292C16.6454 16.4055 16.9198 16.1441 17.2689 15.9574C17.6305 15.7707 18.1168 15.6836 18.7277 15.6836C19.4883 15.6836 20.0619 15.8579 20.4609 16.1939C20.8599 16.53 21.0968 17.0777 21.1716 17.8121L19.4385 17.9365C19.3886 17.6129 19.3013 17.3889 19.1517 17.2395C19.0021 17.0901 18.8026 17.0154 18.5407 17.0154C18.3287 17.0154 18.1666 17.0652 18.0544 17.1773C17.9422 17.2893 17.8923 17.4138 17.8923 17.5756C17.8923 17.6876 17.9422 17.7872 18.0295 17.8867C18.1168 17.9863 18.3163 18.0735 18.6405 18.1481C19.4385 18.3597 20.0245 18.5713 20.3612 18.7829C20.7103 18.9945 20.9597 19.2559 21.1218 19.5671C21.2838 19.8783 21.3587 20.2393 21.3587 20.6251C21.3587 21.0857 21.2589 21.5089 21.0469 21.8947C20.835 22.2806 20.5357 22.5669 20.1617 22.7785C19.7876 22.9776 19.3013 23.0772 18.7277 23.0772C17.7178 23.0772 17.0195 22.8407 16.6205 22.3802C16.2714 21.8947 16.0469 21.2973 15.9971 20.5753Z" fill="#54ACF2"/>
<path d="M23.3791 7.7297L17.0324 1.56834C16.1222 0.684595 14.4264 0 13.1671 0H2.80549C1.25935 0 0 1.25716 0 2.80061V27.3464C0 28.8899 1.25935 30.1471 2.80549 30.1471H22.1945C23.7406 30.1471 25 28.8899 25 27.3464V11.5634C25 10.2814 24.3017 8.62589 23.3791 7.7297ZM22.0823 9.07399C22.3067 9.29804 22.5187 9.62167 22.7057 9.98263H15.6858C15.1746 9.98263 14.7506 9.55943 14.7506 9.0491V2.26539C15.1496 2.43965 15.4988 2.6637 15.7357 2.90019L22.0823 9.07399ZM22.1945 28.28H2.80549C2.29426 28.28 1.87032 27.8568 1.87032 27.3464V2.80061C1.87032 2.29028 2.29426 1.86708 2.80549 1.86708H12.8678V9.03665C12.8678 10.5801 14.1272 11.8373 15.6733 11.8373H23.1421V27.3464C23.1297 27.8568 22.7182 28.28 22.1945 28.28Z" fill="#54ACF2"/>
</svg>
