<svg width="28" height="27" viewBox="0 0 28 27" fill="none" xmlns="http://www.w3.org/2000/svg">
<path d="M27.9978 15.8217C27.9977 14.8351 27.6869 13.8723 27.1073 13.0627C26.5277 12.2531 25.707 11.6355 24.7557 11.293V10.4618C24.7557 7.68715 23.6223 5.02615 21.6048 3.06419C19.5873 1.10222 16.851 0 13.9978 0C11.1446 0 8.40833 1.10222 6.39084 3.06419C4.37334 5.02615 3.23992 7.68715 3.23992 10.4618V11.293C2.14629 11.6888 1.23051 12.4458 0.652717 13.4317C0.0749191 14.4177 -0.128132 15.5697 0.079066 16.6865C0.286264 17.8032 0.890526 18.8136 1.7862 19.541C2.68187 20.2684 3.81196 20.6665 4.97887 20.6656H6.77677C7.00346 20.6656 7.22086 20.578 7.38116 20.4222C7.54145 20.2663 7.6315 20.0548 7.6315 19.8344V11.8089C7.6315 11.5885 7.54145 11.377 7.38116 11.2212C7.22086 11.0653 7.00346 10.9777 6.77677 10.9777H5.9515V10.4618C5.9515 8.38651 6.79924 6.39623 8.30821 4.92879C9.81719 3.46134 11.8638 2.63694 13.9978 2.63694C16.1318 2.63694 18.1784 3.46134 19.6874 4.92879C21.1964 6.39623 22.0441 8.38651 22.0441 10.4618V10.9777H21.2189C20.9922 10.9777 20.7748 11.0653 20.6145 11.2212C20.4542 11.377 20.3641 11.5885 20.3641 11.8089V19.8344C20.3641 20.0548 20.4542 20.2663 20.6145 20.4222C20.7748 20.578 20.9922 20.6656 21.2189 20.6656H21.602C21.1727 21.6258 20.4818 22.4537 19.604 23.0598C18.7261 23.666 17.6947 24.0274 16.621 24.1051C16.5603 23.8295 16.4044 23.5824 16.1791 23.4051C15.9538 23.2278 15.6729 23.1309 15.3831 23.1306H12.5831C12.4163 23.1294 12.251 23.1605 12.0967 23.2221C11.9424 23.2836 11.8022 23.3743 11.6843 23.489C11.5664 23.6037 11.4731 23.74 11.4098 23.8901C11.3465 24.0401 11.3145 24.2009 11.3157 24.3631V25.7675C11.3145 25.9297 11.3465 26.0905 11.4098 26.2405C11.4731 26.3906 11.5664 26.5269 11.6843 26.6416C11.8022 26.7562 11.9424 26.847 12.0967 26.9085C12.251 26.97 12.4163 27.0011 12.5831 27H15.3831C15.6828 27.0024 15.9732 26.8992 16.2008 26.7095C16.4283 26.5199 16.5776 26.2565 16.621 25.9682C18.2179 25.8825 19.7493 25.3228 21.0089 24.3644C22.2685 23.406 23.1956 22.095 23.6652 20.6083C24.8603 20.4545 25.9577 19.8849 26.7542 19.0048C27.5508 18.1248 27.9926 16.994 27.9978 15.8217Z" fill="#7D96AB"/>
</svg>
