<svg width="21" height="24" viewBox="0 0 21 24" fill="none" xmlns="http://www.w3.org/2000/svg">
<path d="M6.12701 17.9684C5.282 17.2049 4.61123 16.2744 4.1588 15.2381C3.70637 14.2019 3.48253 13.0834 3.50201 11.9562C3.48253 10.8289 3.70637 9.71042 4.1588 8.67418C4.61123 7.63794 5.282 6.70745 6.12701 5.94389C7.77755 4.35077 9.99969 3.45799 12.3145 3.45799C14.6293 3.45799 16.8515 4.35077 18.502 5.94389L20.252 4.2261C18.1437 2.16561 15.2897 1.00879 12.3145 1.00879C9.33937 1.00879 6.48536 2.16561 4.37701 4.2261C3.2874 5.20536 2.42284 6.40125 1.84089 7.73413C1.25895 9.06702 0.97297 10.5063 1.00201 11.9562C0.990156 13.4107 1.27117 14.8532 1.8289 16.2008C2.38663 17.5484 3.2101 18.7746 4.25201 19.8089C6.40604 21.8357 9.26824 22.9771 12.252 22.9991C15.2358 22.9771 18.098 21.8357 20.252 19.8089L18.502 17.9684C17.6999 18.7841 16.7386 19.4328 15.6756 19.8758C14.6125 20.3189 13.4694 20.5472 12.3145 20.5472C11.1596 20.5472 10.0165 20.3189 8.95344 19.8758C7.89038 19.4328 6.92912 18.7841 6.12701 17.9684Z" fill="#7D96AB" stroke="#7D96AB"/>
</svg>
