<svg viewBox="0 0 14 14" fill="none" xmlns="http://www.w3.org/2000/svg">
<path d="M14 12.7866L9.79917 8.55739C10.0207 8.23821 10.2121 7.89426 10.368 7.52005C11.5085 4.76572 10.234 1.60142 7.50732 0.426494C6.84 0.143082 6.12619 0 5.40144 0C2.41766 0.00275157 -0.00273259 2.43789 2.31543e-06 5.43986C2.31543e-06 7.62186 1.29908 9.59473 3.2983 10.445C5.12248 11.2099 7.12716 10.8935 8.60675 9.78734L12.7939 14L14 12.7866ZM5.40144 9.15723C3.35847 9.15723 1.70385 7.49253 1.70385 5.43711C1.70385 3.38168 3.3612 1.71698 5.40144 1.71698C7.44168 1.71698 9.09903 3.38168 9.09903 5.43711C9.09903 7.49253 7.44441 9.15723 5.40144 9.15723Z" fill="#AFADAE"/>
</svg>
