<svg width="26" height="26" viewBox="0 0 26 26" fill="none" xmlns="http://www.w3.org/2000/svg">
<path d="M24.5885 14.6395C24.0632 14.5798 23.5782 14.3288 23.2261 13.9344C22.874 13.54 22.6794 13.0298 22.6794 12.5011C22.6794 11.9724 22.874 11.4622 23.2261 11.0678C23.5782 10.6734 24.0632 10.4224 24.5885 10.3627C24.653 10.3561 24.7154 10.336 24.7716 10.3035C24.8278 10.2711 24.8764 10.2271 24.9143 10.1745C24.9525 10.1223 24.9791 10.0626 24.9926 9.99933C25.006 9.93606 25.0059 9.87067 24.9923 9.80744C24.667 8.30251 24.0715 6.86903 23.2348 5.57653C23.2002 5.52212 23.1546 5.47561 23.1008 5.44003C23.047 5.40445 22.9864 5.3806 22.9228 5.37003C22.859 5.3613 22.7941 5.36532 22.7319 5.38186C22.6696 5.3984 22.6113 5.42714 22.5603 5.46639C22.1466 5.79543 21.6263 5.96072 21.0985 5.93075C20.5708 5.90077 20.0725 5.67763 19.6988 5.30386C19.325 4.93009 19.1018 4.43183 19.0719 3.90409C19.0419 3.37635 19.2072 2.85604 19.5362 2.44235C19.5755 2.39131 19.6042 2.33298 19.6207 2.27075C19.6373 2.20852 19.6413 2.14363 19.6326 2.07983C19.622 2.01623 19.5982 1.95557 19.5626 1.90181C19.527 1.84804 19.4805 1.80238 19.4261 1.76779C18.1336 0.931071 16.7001 0.3356 15.1952 0.0102639C15.1319 -0.0033392 15.0665 -0.00342188 15.0033 0.0100223C14.94 0.0234665 14.8803 0.0501338 14.8281 0.0882742C14.7763 0.126652 14.7332 0.175497 14.7016 0.231632C14.67 0.287766 14.6505 0.349932 14.6445 0.414081C14.5847 0.940578 14.3332 1.42665 13.938 1.77956C13.5427 2.13248 13.0314 2.32754 12.5015 2.32754C11.9716 2.32754 11.4603 2.13248 11.0651 1.77956C10.6698 1.42665 10.4183 0.940578 10.3585 0.414081C10.3525 0.349932 10.3331 0.287766 10.3014 0.231632C10.2698 0.175497 10.2267 0.126652 10.175 0.0882742C10.0678 0.0146847 9.93574 -0.0133706 9.80787 0.0102639C8.30294 0.3356 6.86946 0.931071 5.57696 1.76779C5.52255 1.80238 5.47604 1.84804 5.44046 1.90181C5.40488 1.95557 5.38103 2.01623 5.37046 2.07983C5.36173 2.14363 5.36576 2.20852 5.3823 2.27075C5.39884 2.33298 5.42757 2.39131 5.46683 2.44235C5.79587 2.85604 5.96116 3.37635 5.93118 3.90409C5.90121 4.43183 5.67806 4.93009 5.30429 5.30386C4.93052 5.67763 4.43227 5.90077 3.90453 5.93075C3.37679 5.96072 2.85648 5.79543 2.44278 5.46639C2.39174 5.42714 2.33342 5.3984 2.27119 5.38186C2.20896 5.36532 2.14406 5.3613 2.08027 5.37003C2.01667 5.3806 1.95601 5.40445 1.90224 5.44003C1.84848 5.47561 1.80281 5.52212 1.76823 5.57653C0.931507 6.86903 0.336036 8.30251 0.0106998 9.80744C-0.00322905 9.8708 -0.00356247 9.93641 0.00972213 9.99991C0.0230067 10.0634 0.0496067 10.1234 0.0877674 10.1759C0.125928 10.2283 0.174782 10.2721 0.231106 10.3043C0.287429 10.3365 0.349941 10.3564 0.414517 10.3627C0.939842 10.4224 1.42481 10.6734 1.77692 11.0678C2.12903 11.4622 2.32365 11.9724 2.32365 12.5011C2.32365 13.0298 2.12903 13.54 1.77692 13.9344C1.42481 14.3288 0.939842 14.5798 0.414517 14.6395C0.349941 14.6458 0.287429 14.6657 0.231106 14.6979C0.174782 14.7301 0.125928 14.7738 0.0877674 14.8263C0.0496067 14.8788 0.0230067 14.9388 0.00972213 15.0023C-0.00356247 15.0658 -0.00322905 15.1314 0.0106998 15.1947C0.336036 16.6997 0.931507 18.1331 1.76823 19.4256C1.80281 19.4801 1.84848 19.5266 1.90224 19.5621C1.95601 19.5977 2.01667 19.6216 2.08027 19.6321C2.14406 19.6409 2.20896 19.6369 2.27119 19.6203C2.33342 19.6038 2.39174 19.575 2.44278 19.5358C2.85648 19.2067 3.37679 19.0414 3.90453 19.0714C4.43227 19.1014 4.93052 19.3245 5.30429 19.6983C5.67806 20.0721 5.90121 20.5703 5.93118 21.0981C5.96116 21.6258 5.79587 22.1461 5.46683 22.5598C5.42757 22.6109 5.39884 22.6692 5.3823 22.7314C5.36576 22.7937 5.36173 22.8585 5.37046 22.9223C5.38103 22.9859 5.40488 23.0466 5.44046 23.1004C5.47604 23.1541 5.52255 23.1998 5.57696 23.2344C6.86946 24.0711 8.30294 24.6666 9.80787 24.9919C9.87111 25.0055 9.9365 25.0056 9.99977 24.9922C10.063 24.9787 10.1227 24.952 10.175 24.9139C10.2267 24.8755 10.2698 24.8267 10.3014 24.7705C10.3331 24.7144 10.3525 24.6522 10.3585 24.5881C10.4183 24.0616 10.6698 23.5755 11.0651 23.2226C11.4603 22.8697 11.9716 22.6746 12.5015 22.6746C13.0314 22.6746 13.5427 22.8697 13.938 23.2226C14.3332 23.5755 14.5847 24.0616 14.6445 24.5881C14.6505 24.6522 14.67 24.7144 14.7016 24.7705C14.7332 24.8267 14.7763 24.8755 14.8281 24.9139C14.9068 24.9709 15.0016 25.0014 15.0988 25.0011H15.1952C16.7001 24.6757 18.1336 24.0803 19.4261 23.2436C19.4805 23.209 19.527 23.1633 19.5626 23.1095C19.5982 23.0558 19.622 22.9951 19.6326 22.9315C19.6413 22.8677 19.6373 22.8028 19.6207 22.7406C19.6042 22.6784 19.5755 22.62 19.5362 22.569C19.2072 22.1553 19.0419 21.635 19.0719 21.1073C19.1018 20.5795 19.325 20.0813 19.6988 19.7075C20.0725 19.3337 20.5708 19.1106 21.0985 19.0806C21.6263 19.0506 22.1466 19.2159 22.5603 19.545C22.6113 19.5842 22.6696 19.6129 22.7319 19.6295C22.7941 19.646 22.859 19.6501 22.9228 19.6413C22.9864 19.6308 23.047 19.6069 23.1008 19.5713C23.1546 19.5357 23.2002 19.4892 23.2348 19.4348C24.0715 18.1423 24.667 16.7088 24.9923 15.2039C25.0059 15.1407 25.006 15.0753 24.9926 15.012C24.9791 14.9488 24.9525 14.889 24.9143 14.8368C24.8773 14.7825 24.8291 14.7368 24.7729 14.7027C24.7167 14.6687 24.6538 14.6471 24.5885 14.6395ZM12.5015 19.132C11.1901 19.132 9.90805 18.7431 8.81761 18.0145C7.72716 17.2858 6.87727 16.2502 6.37539 15.0386C5.87352 13.827 5.7422 12.4937 5.99806 11.2075C6.25391 9.9212 6.88544 8.73969 7.81279 7.81235C8.74013 6.88501 9.92164 6.25348 11.2079 5.99762C12.4942 5.74177 13.8274 5.87308 15.039 6.37496C16.2507 6.87683 17.2863 7.72673 18.0149 8.81717C18.7435 9.90761 19.1324 11.1896 19.1324 12.5011C19.1312 14.2593 18.4322 15.9452 17.1889 17.1885C15.9456 18.4317 14.2598 19.1307 12.5015 19.132Z" fill="#7D96AB"/>
</svg>
